<?xml version='1.0' encoding='utf-8'?>
<svg xmlns="http://www.w3.org/2000/svg" width="210mm" height="297mm" viewBox="0 0 210 297" version="1.1" id="svg8"> <defs id="defs2"/> <metadata id="metadata5"> </metadata> <g id="layer1"> <g id="g4622" transform="translate(169.30877,-17.16328)"> <ellipse style="opacity:1;vector-effect:none;fill:#000000;fill-opacity:0.22520661;stroke:none;stroke-width:1.66199994;stroke-linecap:square;stroke-linejoin:bevel;stroke-miterlimit:4;stroke-dasharray:none;stroke-dashoffset:0;stroke-opacity:1;paint-order:markers stroke fill" id="path4624" cx="-54.820225" cy="267.12384" rx="63.56155" ry="9.7188911"/> <g id="g4559"> <path style="opacity:1;vector-effect:none;fill:#aa4400;fill-opacity:1;stroke:none;stroke-width:2.44199777;stroke-linecap:square;stroke-linejoin:bevel;stroke-miterlimit:4;stroke-dasharray:none;stroke-dashoffset:0;stroke-opacity:1;paint-order:markers stroke fill" d="m -102.4,118.2145 c -3.24994,1.11736 -5.77188,3.79919 -8.93397,5.19821 -1.75964,0.48161 -4.67344,2.50246 -1.11281,2.74885 2.15534,0.82898 5.01199,0.65595 6.74843,2.26765 0.13686,2.5626 -3.11631,3.32511 -4.6031,4.88156 -3.13935,2.66839 -6.97573,5.19801 -8.51209,9.16907 -0.1829,2.07993 2.71608,1.28175 3.93084,1.38342 0.78597,0.28089 2.57434,-0.58567 2.98628,0.31511 -0.67842,2.5031 -2.98564,4.25874 -3.92172,6.69768 -1.47295,3.21972 -3.41114,6.77033 -2.8238,10.39238 1.25665,1.33357 4.28738,-0.44431 4.66052,2.08045 1.09142,4.4773 0.50979,9.70573 3.46767,13.52749 2.18145,1.56719 4.69619,-1.41686 6.98545,-0.76537 2.4963,1.68132 3.857133,5.05444 6.837392,5.93081 1.146005,-0.0665 1.921907,-0.94116 3.09486,-0.97721 2.150311,-0.46721 4.057925,-3.49417 6.339298,-2.03034 2.964566,1.48709 6.431253,4.77676 9.856321,2.5793 3.71044,-2.4704 6.288117,-6.2684 9.876068,-8.8905 2.541228,0.87754 5.808832,3.2214 8.245872,0.83901 2.995414,-3.25708 1.434899,-8.12847 0.741852,-11.97316 -0.331322,-1.96355 -1.309545,-4.22789 -1.265005,-5.99388 1.529043,-1.70959 4.228812,-0.59531 6.253501,-1.00834 4.29636,-0.20044 6.03182,-5.05012 6.648328,-8.63538 0.965663,-4.56863 -3.077905,-8.18342 -3.954372,-12.38628 0.551405,-1.20595 2.581158,-0.59669 3.610417,-0.98859 1.785143,-0.3587 4.820523,0.20757 5.563303,-1.93846 -0.314121,-2.60948 -3.11119,-4.05118 -4.627858,-5.94827 -2.412834,-0.10498 -5.107244,0.10087 -7.457734,0.63704 -0.509341,5.91629 0.269793,12.03077 -0.766879,17.87517 -1.202764,1.06206 -2.349733,-1.27832 -3.1569,-1.88631 -2.47659,-2.90833 -4.943303,-7.13837 -9.371152,-6.7679 -3.923692,-0.30421 -8.178538,0.38862 -10.930165,3.46827 -1.636398,1.1331 -2.946988,4.31829 -5.047237,2.27738 -3.461485,-2.29406 -7.86892,-1.88033 -11.723925,-1.0572 -5.427395,1.7976 -9.095585,6.42775 -13.605695,9.62094 -0.48412,-0.92574 0.92158,-2.28552 1.22034,-3.25017 4.16927,-7.70909 7.171005,-16.01245 9.975374,-24.28998 -0.277752,-2.14416 -3.482234,-2.76322 -5.227704,-3.10245 z m 37.139837,20.07786 c 1.88668,1.37806 2.188472,4.20178 2.981725,6.22389 0.976318,3.52346 1.740331,7.45705 1.273939,10.98564 -0.308104,3.98852 -1.932918,8.89002 -6.338395,9.91226 -4.768352,0.83362 -9.57049,-0.75831 -14.33386,-1.05486 -7.363801,-0.78878 -14.661779,-2.35169 -22.014036,-2.97241 -0.69881,-2.56988 0.25785,-5.44876 0.40546,-8.09781 0.22766,-2.01772 1.00261,-4.88874 3.608141,-4.51777 6.625458,-0.0616 13.215207,-1.05471 19.456207,-3.33246 5.033468,-1.49023 10.032365,-3.42626 14.073208,-6.86706 0.267169,-0.14685 0.567833,-0.33787 0.887611,-0.27942 z" id="path4514"/> <path style="opacity:1;vector-effect:none;fill:#aa5f00;fill-opacity:1;stroke:none;stroke-width:2.44199777;stroke-linecap:square;stroke-linejoin:bevel;stroke-miterlimit:4;stroke-dasharray:none;stroke-dashoffset:0;stroke-opacity:1;paint-order:markers stroke fill" d="m -23.07334,137.06687 c -2.692805,0.34154 -5.578393,0.93558 -7.943363,2.09146 -0.580184,9.05854 -0.151326,18.39101 1.320091,27.42056 0.295693,1.39739 1.526174,2.33191 1.517816,3.8701 0.06144,1.83815 1.814679,2.63013 3.434263,2.15106 1.557017,-0.45072 4.511513,0.3877 4.894371,-1.79268 1.687483,-9.88697 0.377325,-19.97826 -0.501232,-29.88289 -0.230542,-1.59258 -0.436401,-4.24733 -2.721946,-3.85761 z" id="path4516"/> <path style="opacity:1;vector-effect:none;fill:#dcb100;fill-opacity:1;stroke:none;stroke-width:2.44199777;stroke-linecap:square;stroke-linejoin:bevel;stroke-miterlimit:4;stroke-dasharray:none;stroke-dashoffset:0;stroke-opacity:1;paint-order:markers stroke fill" d="m -18.33614,139.06684 c 0.254093,8.04696 1.231932,16.21275 1.407721,24.32836 -0.324353,1.47959 1.151834,2.26221 2.349997,1.56413 8.3933457,-2.63131 12.9569001,-14.5494 6.8320765,-21.44838 -2.6494135,-2.89359 -6.6497645,-4.88561 -10.5897945,-4.44411 z" id="path4518"/> <path style="opacity:1;vector-effect:none;fill:#cccccc;fill-opacity:1;stroke:none;stroke-width:2.44199777;stroke-linecap:square;stroke-linejoin:bevel;stroke-miterlimit:4;stroke-dasharray:none;stroke-dashoffset:0;stroke-opacity:1;paint-order:markers stroke fill" d="m 17.977589,124.00028 c -0.28122,1.51619 2.283013,1.54594 3.104729,2.62258 4.246187,3.03902 4.383699,9.60071 0.845847,13.27616 -2.756247,3.08468 -7.148201,4.24688 -11.136482,3.56941 -4.7527687,-0.10327 -9.4569227,0.82042 -14.1220057,1.59982 -0.8941673,1.10293 0.2827708,2.81105 0.6112272,4.03486 1.2824168,2.01219 4.0562952,0.40441 5.8996711,0.38268 1.713476,-0.11122 3.459435,-1.03351 5.1077336,-1.03643 2.2630708,3.03497 6.4372488,2.04103 9.6110718,1.4343 5.360545,-0.98982 11.074257,-4.59643 11.968252,-10.35028 1.05728,-5.38894 -0.55376,-12.12558 -6.045803,-14.442 -1.806393,-0.75781 -3.921842,-1.28874 -5.844241,-1.0911 z" id="path4520"/> <path style="opacity:1;vector-effect:none;fill:#dcb100;fill-opacity:1;stroke:none;stroke-width:2.44199777;stroke-linecap:square;stroke-linejoin:bevel;stroke-miterlimit:4;stroke-dasharray:none;stroke-dashoffset:0;stroke-opacity:1;paint-order:markers stroke fill" d="m -65.547175,184.87547 c -4.148907,-0.14574 -7.068981,4.88082 -4.881467,8.40684 1.178668,2.74833 4.820124,3.53034 7.093273,1.63095 2.608278,-1.57089 4.676325,-5.45637 2.819998,-8.22689 -1.343708,-1.20902 -3.235815,-1.82541 -5.031804,-1.8109 z" id="path4522"/> <path style="opacity:1;vector-effect:none;fill:#dcb100;fill-opacity:1;stroke:none;stroke-width:2.44199777;stroke-linecap:square;stroke-linejoin:bevel;stroke-miterlimit:4;stroke-dasharray:none;stroke-dashoffset:0;stroke-opacity:1;paint-order:markers stroke fill" d="m -66.412005,204.71415 c -3.181533,-0.0529 -3.688146,3.91235 -3.286958,6.30893 0.241852,2.54105 2.581465,4.61845 5.175308,4.05156 2.90328,0.0605 6.615281,-2.25047 6.053047,-5.5018 -1.394463,-2.92337 -4.686747,-4.97087 -7.941397,-4.85869 z" id="path4524"/> <path style="opacity:1;vector-effect:none;fill:#c83737;fill-opacity:1;stroke:none;stroke-width:1.22099888;stroke-linecap:square;stroke-linejoin:bevel;stroke-miterlimit:4;stroke-dasharray:none;stroke-dashoffset:0;stroke-opacity:1;paint-order:markers stroke fill" d="m -120.72785,155.62272 c -1.3045,0.60645 -2.33824,1.75177 -3.6156,2.45252 -4.14188,2.71797 -8.25531,5.46321 -12.57622,7.87115 -0.43894,0.98311 0.59456,1.96909 0.85406,2.90117 4.11778,8.08337 6.62204,17.00244 11.79984,24.5275 1.61588,2.16453 3.34227,4.32657 5.42437,6.04911 1.07072,0.0139 1.4712,-1.37703 2.17166,-2.00374 3.96361,-5.28698 7.73437,-10.71826 11.5185,-16.13325 0.52382,-1.03787 1.57509,-1.99999 1.57002,-3.21268 -0.64948,-0.8927 -1.76429,0.18867 -2.57095,0.34206 -1.95892,0.79256 -4.77025,1.41945 -6.13808,-0.71373 -2.7221,-4.06628 -2.80143,-9.12543 -3.37428,-13.81374 -0.61252,-1.01502 -1.87364,0.10765 -2.79684,-0.11275 -1.83559,-0.0521 -2.31953,-2.24781 -2.19359,-3.72773 -0.006,-1.33892 0.2936,-2.65958 0.53872,-3.95589 -0.0419,-0.28616 -0.32488,-0.5019 -0.61161,-0.47 z" id="path4538"/> <path style="opacity:1;vector-effect:none;fill:#c83737;fill-opacity:1;stroke:none;stroke-width:1.22099888;stroke-linecap:square;stroke-linejoin:bevel;stroke-miterlimit:4;stroke-dasharray:none;stroke-dashoffset:0;stroke-opacity:1;paint-order:markers stroke fill" d="m -33.874743,142.08005 c -3.233962,1.30412 -6.642846,2.16771 -9.833544,3.56372 -1.713979,1.13303 -1.630386,3.51452 -2.453261,5.1905 -0.626648,2.14146 -2.228475,3.84886 -4.251635,4.75011 -1.510707,0.94187 -3.291993,1.17383 -5.032563,0.9195 -0.735227,0.0659 -2.348844,-0.40877 -2.264957,0.78965 1.286147,4.70623 3.065332,9.6925 1.538316,14.55405 -0.855043,2.669 -3.54815,4.89012 -6.448636,4.47069 -1.393934,0.083 -2.480601,-1.1212 -3.824537,-1.14805 -0.852532,0.60163 0.008,1.7824 0.0086,2.60945 0.48704,1.79273 0.653978,3.76539 1.540764,5.39004 2.13541,0.21779 4.826645,0.2458 6.050391,2.37277 2.010828,3.0005 0.835118,7.10542 -1.678027,9.42315 -1.391021,1.45688 -3.260217,2.34496 -5.15855,2.86547 -0.537821,0.88974 -0.0422,2.17788 -0.159213,3.22337 -0.30191,1.26107 0.427281,2.08984 1.674778,2.19771 2.695395,0.98691 5.911332,2.12135 7.127359,4.96455 1.041572,2.9649 -1.108919,5.91283 -3.707606,7.18401 -0.824217,0.6031 -2.211234,0.56123 -2.67649,1.50491 -0.0076,7.27964 -0.120084,14.53527 -0.619202,21.78816 -0.234955,2.43678 1.418304,4.61011 3.259627,6.00901 2.037855,1.06712 4.479351,0.75601 6.699853,0.97152 10.208681,0.28322 20.471336,0.34912 30.647298,0.56428 0.788049,-0.57091 0.224915,-1.87578 0.365041,-2.76196 -0.212635,-7.94021 -0.463275,-16.11974 -3.626596,-23.54107 -3.235698,-7.87255 -7.413504,-15.34878 -12.44635,-22.21476 -3.188316,-4.45855 -6.189236,-9.15097 -7.884316,-14.41401 -0.66671,-1.68847 -1.146386,-3.54227 -2.250572,-4.98973 -0.0037,-1.16895 1.580465,-1.18452 2.342161,-1.68228 4.942951,-1.90177 9.978035,-3.56712 14.979866,-5.2895 1.273514,-0.47837 0.389882,-1.99637 0.445366,-2.94249 -1.00661,-8.56875 -1.484154,-17.21515 -1.651876,-25.82771 -0.04753,-0.35791 -0.362241,-0.59042 -0.711454,-0.49506 z m -10.350997,73.64794 c 1.447276,1.9658 2.601968,4.20683 4.558765,5.75465 1.574176,1.54792 3.815871,2.12189 5.458905,3.53942 -0.701231,0.84604 -1.72275,-0.19727 -2.539821,-0.33447 -3.296549,-1.21611 -5.82573,-3.97635 -7.33966,-7.08074 -0.235598,-0.56922 -0.4122,-1.38916 -0.138189,-1.87886 z" id="path4540"/> <path style="opacity:1;vector-effect:none;fill:#c83737;fill-opacity:1;stroke:none;stroke-width:1.22099888;stroke-linecap:square;stroke-linejoin:bevel;stroke-miterlimit:4;stroke-dasharray:none;stroke-dashoffset:0;stroke-opacity:1;paint-order:markers stroke fill" d="m -68.758351,175.99785 c -2.629416,1.85095 -4.519777,4.61482 -7.083401,6.57278 -1.817712,1.38878 -4.281588,1.3774 -6.408015,0.8466 -2.271086,-0.76171 -3.989507,-2.72114 -6.293742,-3.40882 -1.228302,0.0759 -2.103131,1.26732 -2.929742,2.02799 -0.145312,0.95201 1.147665,1.50597 1.637813,2.26123 1.2036,0.94867 1.329016,2.4948 1.755095,3.83858 0.5142,0.78073 1.633829,0.77537 2.211427,1.53604 1.972115,1.9315 3.735438,4.27271 4.482839,6.95546 0.16814,0.93399 0.0083,1.97241 -0.997326,2.35987 -1.634972,0.95362 -3.732485,1.01998 -5.210236,2.21902 -0.608835,1.40074 -0.04971,3.03126 0.12908,4.48322 0.278603,1.14873 0.615127,3.14138 2.231548,2.87505 3.315097,-0.31831 6.941064,-0.8155 9.960541,0.93041 0.90659,0.49234 2.086478,1.03038 2.489891,1.9731 -1.61744,-0.14183 -2.962254,-1.63385 -4.614577,-1.50263 -0.987459,0.69372 0.422749,1.60746 0.990113,2.00111 0.303649,0.22042 0.852118,0.66184 0.813957,0.7627 -3.039851,-0.60262 -5.662327,-2.69349 -8.809644,-2.8386 -1.391494,-0.12428 -2.268418,1.16172 -2.397831,2.40961 -0.340934,2.25074 -1.767078,4.32342 -3.931216,5.15443 -0.870712,0.49098 -0.09426,1.51856 0.705757,1.36406 5.872454,-0.003 11.959672,1.1451 16.837221,4.58913 1.40466,1.20437 3.281423,1.924 4.122555,3.68901 0.851982,1.107 1.476478,2.46977 2.54286,3.35947 1.094176,-0.26206 0.524555,-1.79657 0.783963,-2.63739 0.135911,-3.41073 0.383125,-6.87404 -0.06036,-10.26406 -0.775324,-1.42328 -2.715202,-1.53954 -3.610417,-2.89327 -1.971347,-2.40204 -2.120633,-5.93861 -1.081606,-8.77357 0.508069,-1.52454 2.112309,-2.14378 3.115741,-3.19585 -0.248682,-1.65725 0.180983,-3.55782 -0.691713,-5.06407 -1.207045,-1.01157 -2.678282,-1.81971 -3.401991,-3.3086 -0.960896,-1.76392 -1.756601,-3.82722 -0.918864,-5.81017 0.653576,-2.36875 2.626214,-4.22739 4.916517,-5.02222 1.124987,-0.33492 0.827825,-1.59175 0.568708,-2.42631 -0.470487,-1.61743 -0.62761,-3.41353 -1.375973,-4.90716 -0.08864,-0.19795 -0.315847,-0.12553 -0.47897,-0.15615 z" id="path4542"/> <path style="opacity:1;vector-effect:none;fill:#c83737;fill-opacity:1;stroke:none;stroke-width:1.22099888;stroke-linecap:square;stroke-linejoin:bevel;stroke-miterlimit:4;stroke-dasharray:none;stroke-dashoffset:0;stroke-opacity:1;paint-order:markers stroke fill" d="m -101.27412,213.43912 c -1.14667,0.57262 -1.03597,2.21327 -1.49392,3.25274 -0.65537,2.4881 -1.39658,4.963 -1.95894,7.47031 0.29596,1.08562 1.42623,0.13524 1.81646,-0.36576 1.35546,-1.66135 3.233323,-2.74817 5.2776,-3.33564 0.94634,-0.45395 2.229779,-0.52062 2.909184,-1.35964 0.09764,-1.14326 -1.483022,-0.92332 -2.153727,-1.43291 -0.914633,-0.24568 -2.069547,-1.50331 -2.947932,-0.61907 -0.377125,0.46296 -0.565145,1.199 -1.123745,1.46885 -0.14743,-1.62315 1.114945,-3.40758 0.20918,-4.9293 -0.1421,-0.12952 -0.34543,-0.18613 -0.53416,-0.14958 z" id="path4544"/> <path style="opacity:1;vector-effect:none;fill:#9e2b2b;fill-opacity:1;stroke:none;stroke-width:1.22099888;stroke-linecap:square;stroke-linejoin:bevel;stroke-miterlimit:4;stroke-dasharray:none;stroke-dashoffset:0;stroke-opacity:1;paint-order:markers stroke fill" d="m -102.47645,180.56003 c -1.24401,1.21472 -1.92018,2.95039 -2.97837,4.3362 -4.00449,6.05116 -7.90725,12.17434 -11.95076,18.19682 -0.37172,0.63172 -1.87161,1.30987 -0.816,1.99969 4.54555,2.73567 8.92244,5.73398 13.32983,8.67933 1.09085,0.20078 1.23015,-1.35625 1.78006,-1.99959 2.33968,-4.24124 4.3341,-8.65811 6.512889,-12.97814 1.845569,-3.5185 4.585739,-6.52713 6.079243,-10.22837 0.501127,-1.19224 0.114539,-2.56897 -0.969229,-3.29493 -0.961488,-1.08643 -2.376861,-1.91057 -3.864398,-1.46353 -2.037057,0.54578 -3.867698,-0.73527 -5.252765,-2.08083 -0.58496,-0.3804 -1.09622,-1.26587 -1.8705,-1.16665 z" id="path4546"/> <path style="opacity:1;vector-effect:none;fill:#ffccaa;fill-opacity:1;stroke:none;stroke-width:1.22099888;stroke-linecap:square;stroke-linejoin:bevel;stroke-miterlimit:4;stroke-dasharray:none;stroke-dashoffset:0;stroke-opacity:1;paint-order:markers stroke fill" d="m -88.2341,189.70376 c -1.117552,0.39859 -1.207034,1.88167 -1.971312,2.67166 -2.354279,3.37577 -4.663602,6.85277 -6.322272,10.65693 -0.984496,2.34277 -2.449724,4.54876 -2.955274,7.06096 0.129236,2.43663 1.482294,5.42991 4.167735,5.81274 1.957813,0.1456 4.280818,-0.18359 5.656699,-1.71372 1.641025,-2.52772 1.074177,-5.72369 0.230444,-8.42734 -0.639119,-2.35501 -0.592651,-5.47287 1.784707,-6.8484 1.24096,-0.86903 3.067722,-0.63091 4.11952,-1.74978 0.403665,-1.28221 -0.781449,-2.41818 -1.285475,-3.50336 -0.971471,-1.34701 -1.72276,-3.0361 -3.159019,-3.94184 -0.08651,-0.0231 -0.176967,-0.029 -0.265753,-0.0178 z" id="path4548"/> <path style="opacity:1;vector-effect:none;fill:#ffccaa;fill-opacity:1;stroke:none;stroke-width:1.22099888;stroke-linecap:square;stroke-linejoin:bevel;stroke-miterlimit:4;stroke-dasharray:none;stroke-dashoffset:0;stroke-opacity:1;paint-order:markers stroke fill" d="m -95.056304,120.50221 c -0.971773,0.45674 -0.776359,1.89892 -1.209152,2.77143 -1.793427,5.7961 -4.250304,11.36812 -6.168174,17.10873 0.28126,1.10551 1.49881,0.0855 2.05277,-0.21914 3.353463,-2.24664 7.453324,-3.57735 11.459224,-3.25165 2.267945,0.0507 4.477637,0.6703 6.587969,1.55122 1.623777,0.31816 2.575317,-1.46791 3.767299,-2.23188 1.55258,-1.31949 3.253388,-2.57645 5.278482,-3.03606 1.013418,-0.74267 -0.509759,-1.30398 -1.137414,-1.51364 -0.65813,-0.13417 -1.580425,-0.91925 -0.815097,-1.51592 2.983156,-2.07251 6.704616,-2.67096 10.210152,-3.15978 0.691126,-0.28873 1.407033,0.88619 0.483285,1.11767 -1.13811,0.85581 -2.678451,0.96978 -3.777837,1.84318 -0.393922,1.22826 1.449372,1.12144 2.19738,1.37393 1.956081,0.48854 4.092171,0.83321 5.76072,2.00414 -0.736597,0.62062 -0.285427,1.55878 0.261485,2.1448 1.222195,1.56232 2.290847,3.28438 3.592285,4.7632 1.159817,0.26338 0.896663,-1.35943 0.956704,-2.0421 -5.29e-4,-4.1609 0.125117,-8.3624 -0.03646,-12.49762 -0.790882,-0.75969 -2.282124,-0.23785 -3.345355,-0.46723 -10.887734,-0.37379 -21.82441,-1.24326 -32.410325,-3.97422 -1.229826,-0.26934 -2.453783,-0.64229 -3.707937,-0.76906 z m 2.107025,6.19959 c 3.690241,0.36157 7.022068,1.6912 10.608016,2.57855 0.807969,0.24731 -0.321747,1.09124 -0.764982,1.06946 -1.332494,0.44693 -2.674673,-0.48949 -3.973735,-0.22703 -1.083828,0.76112 -0.933611,2.61061 -2.254329,3.11498 -0.925457,-0.42686 -1.934064,-1.49282 -1.308632,-2.58462 0.606745,-0.98666 -0.129354,-2.08884 -1.156017,-2.34544 -0.620686,-0.27114 -1.438214,-0.81237 -1.587291,-1.47719 0.09116,-0.13921 0.291732,-0.13286 0.43697,-0.12871 z" id="path4550"/> <path style="opacity:1;vector-effect:none;fill:#f2f2f2;fill-opacity:1;stroke:none;stroke-width:1.22099888;stroke-linecap:square;stroke-linejoin:bevel;stroke-miterlimit:4;stroke-dasharray:none;stroke-dashoffset:0;stroke-opacity:1;paint-order:markers stroke fill" d="m -65.754224,140.75269 c -2.001756,1.1267 -3.822894,2.50191 -5.965733,3.35416 -6.36814,2.77375 -13.148982,4.57529 -19.990165,5.84424 -2.867596,0.54426 -5.851321,0.19542 -8.721388,0.0461 -0.87569,0.74243 -1.04452,2.24715 -0.85817,3.37867 0.54161,0.93963 1.945107,0.67322 2.862483,0.99984 0.623695,0.20904 1.57583,0.1001 2.000756,0.63795 0.07702,0.60016 -0.960903,0.25402 -1.264214,0.37595 -1.354796,0.11734 -2.904065,-0.47513 -4.200385,0.12062 -0.70816,0.85672 -0.81263,2.28816 -0.33864,3.27481 1.64245,0.84576 3.623871,0.88375 5.411404,1.32639 7.442716,1.33059 14.961126,2.10859 22.438534,3.19442 2.824756,0.20474 6.148367,1.0854 8.57844,-0.86673 2.241828,-1.69564 3.052112,-5.21399 1.465046,-7.58643 -1.041924,-0.54177 -2.23079,0.3928 -3.288832,0.52631 -1.436412,0.35223 -3.131124,1.12288 -4.526904,0.36471 -0.364392,-0.67823 0.863176,-0.741 1.217522,-1.01327 2.223416,-0.95214 5.025948,-1.30425 6.355623,-3.58801 1.915641,-2.72482 0.604025,-6.18129 -0.212916,-9.04885 -0.204025,-0.48487 -0.21019,-1.43201 -0.962461,-1.34088 z" id="path4552"/> <path style="opacity:1;vector-effect:none;fill:#333333;fill-opacity:1;stroke:none;stroke-width:1.22099888;stroke-linecap:square;stroke-linejoin:bevel;stroke-miterlimit:4;stroke-dasharray:none;stroke-dashoffset:0;stroke-opacity:1;paint-order:markers stroke fill" d="m -101.47039,78.047235 c -4.19896,0.163689 -8.62334,0.54915 -12.34945,2.654091 -3.25853,2.318829 -3.60069,6.681872 -3.89173,10.337334 -0.32863,2.977456 0.18054,6.232511 -1.33217,8.929229 -0.63773,1.931471 -0.72041,4.350481 0.71259,5.968011 3.28763,3.78418 7.81299,6.22746 12.22682,8.46379 12.522167,5.85136 26.406336,8.13594 40.120217,8.80317 8.710144,0.0881 17.434655,-0.099 26.122355,-0.74666 5.204832,-0.63459 10.542822,-1.82353 15.002046,-4.69932 3.693819,-2.61691 4.541571,-7.78287 3.512849,-11.94399 -0.48569,-1.97199 -2.460762,-3.6364 -4.560286,-3.07511 -5.111242,1.07986 -9.894459,3.47991 -15.134897,4.02802 -3.613185,0.43074 -7.311856,0.64247 -10.952837,0.67783 -4.069035,-1.31598 -8.271926,-2.27282 -12.175847,-4.03123 -4.905375,-3.21993 -8.476898,-8.014219 -12.223988,-12.455449 -5.076666,-5.93268 -11.970711,-10.211705 -19.433741,-12.42586 -1.841487,-0.462714 -3.754051,-0.497329 -5.641931,-0.483856 z" id="path4554"/> <path style="opacity:1;vector-effect:none;fill:#333333;fill-opacity:1;stroke:none;stroke-width:1.22099888;stroke-linecap:square;stroke-linejoin:bevel;stroke-miterlimit:4;stroke-dasharray:none;stroke-dashoffset:0;stroke-opacity:1;paint-order:markers stroke fill" d="m -63.801338,59.09957 c -3.215031,0.126495 -6.695143,0.417849 -9.417452,2.298367 -1.45461,1.05293 -0.640815,2.980227 -0.30979,4.388686 0.384382,1.352481 1.999136,0.519954 2.929335,0.472657 3.057181,-0.294595 6.534689,-0.160912 8.936064,2.104369 0.888873,0.653261 1.548487,1.661271 2.559563,2.099053 1.122712,-0.750594 1.937459,-2.553827 3.597508,-2.154481 1.939078,0.601316 3.930022,2.080853 4.38337,4.152929 -0.01516,1.301261 -1.744086,1.303229 -2.683703,1.49428 -1.11569,0.191949 -2.307669,-0.136345 -3.371241,0.229684 -0.580515,1.918608 -0.615255,4.135718 -2.194343,5.628225 -1.197917,1.509128 -3.036846,2.592866 -3.80859,4.392483 0.314814,1.840756 2.780511,2.87801 2.276726,4.974098 -0.297683,1.705781 -1.177655,3.825067 -3.018933,4.278211 -2.055122,-0.04977 -2.529768,-2.507609 -2.828607,-4.128526 -0.198795,-0.801259 -0.200044,-2.507435 -1.460233,-2.152687 -1.424387,0.496824 -3.349551,1.517824 -4.552693,0.05239 -0.404106,-0.661977 -0.670703,-1.935679 -1.725102,-1.455177 -0.673711,0.232751 -2.219238,0.342114 -1.809006,1.400125 1.899512,2.388954 3.692445,4.865804 5.595577,7.270946 2.418403,2.735278 4.865992,5.692608 8.202507,7.327668 3.684772,1.51857 7.450505,3.02343 11.397263,3.67849 1.623811,0.0508 3.331953,0.32719 4.908542,-0.0116 2.778151,-7.291717 6.878571,-14.092466 9.148122,-21.611359 1.005506,-3.494907 1.985483,-7.35879 0.801592,-10.93099 -1.780643,-3.401383 -4.801357,-6.090243 -8.303749,-7.641058 -4.509199,-2.042377 -9.050049,-4.093662 -13.793441,-5.531837 -1.781368,-0.444928 -3.624744,-0.636526 -5.459286,-0.624895 z" id="path4556"/> <path style="opacity:1;vector-effect:none;fill:#333333;fill-opacity:1;stroke:none;stroke-width:1.22099888;stroke-linecap:square;stroke-linejoin:bevel;stroke-miterlimit:4;stroke-dasharray:none;stroke-dashoffset:0;stroke-opacity:1;paint-order:markers stroke fill" d="m -79.386111,67.265718 c -1.296405,0.555085 -1.785053,2.146768 -2.596401,3.218497 -1.512898,2.703727 -3.256129,5.371849 -4.123682,8.365207 -0.03054,1.205653 1.759493,2.490838 2.69054,1.400509 1.694537,-0.739572 4.178684,-1.197251 4.54946,-3.373287 0.409432,-2.06321 0.893403,-4.065738 1.494854,-6.059734 0.14243,-1.336701 -0.634582,-2.782194 -1.728899,-3.510949 -0.09119,-0.03236 -0.189219,-0.04696 -0.285872,-0.04024 z" id="path4558"/> <path style="opacity:1;vector-effect:none;fill:#333333;fill-opacity:1;stroke:none;stroke-width:0.30524972;stroke-linecap:square;stroke-linejoin:bevel;stroke-miterlimit:4;stroke-dasharray:none;stroke-dashoffset:0;stroke-opacity:1;paint-order:markers stroke fill" d="m -65.181854,72.635691 c -0.595268,0.05026 -0.833086,0.704437 -1.056219,1.166627 -0.395928,0.945973 -0.708253,2.082559 -0.243586,3.059382 0.291499,0.628018 1.114515,0.906005 1.721114,0.559689 0.717847,-0.345678 1.169845,-1.113374 1.160193,-1.905243 0.03412,-0.933511 -0.128035,-2.011675 -0.88011,-2.647733 -0.1993,-0.153379 -0.449194,-0.240226 -0.701392,-0.232722 z" id="path4562"/> <path style="opacity:1;vector-effect:none;fill:#333333;fill-opacity:1;stroke:none;stroke-width:0.30524972;stroke-linecap:square;stroke-linejoin:bevel;stroke-miterlimit:4;stroke-dasharray:none;stroke-dashoffset:0;stroke-opacity:1;paint-order:markers stroke fill" d="m -71.852013,71.917593 c -0.616265,0.05962 -0.835107,0.741653 -1.05228,1.223309 -0.31097,0.860684 -0.604197,1.775052 -0.529317,2.700599 0.03426,0.522285 0.660839,0.843966 1.101823,0.55988 0.731276,-0.466667 1.106561,-1.314297 1.38843,-2.103038 0.20253,-0.698894 0.295923,-1.618046 -0.294677,-2.160273 -0.170191,-0.14002 -0.391173,-0.231603 -0.613979,-0.220477 z" id="path4570"/> <path style="opacity:1;vector-effect:none;fill:#f9f9f9;fill-opacity:1;stroke:none;stroke-width:0.30524972;stroke-linecap:square;stroke-linejoin:bevel;stroke-miterlimit:4;stroke-dasharray:none;stroke-dashoffset:0;stroke-opacity:1;paint-order:markers stroke fill" d="m -75.97079,63.56779 c -0.03161,-0.0016 -0.0635,-5.29e-4 -0.0956,0.0031 -0.601204,0.137297 -0.899059,0.792136 -1.107942,1.318265 -0.334539,1.231882 -0.08726,2.616184 0.671793,3.642672 0.321683,0.41324 0.917024,0.316355 1.23145,-0.04754 0.469149,-0.409588 1.105934,-0.980808 0.800468,-1.674317 -0.366181,-0.953458 -0.488977,-1.998139 -0.955498,-2.909899 -0.118962,-0.18611 -0.323408,-0.321159 -0.544669,-0.332279 z m 7.360275,3.725871 c -1.811735,0.01693 -3.731718,0.28676 -5.234824,1.373042 -0.572034,0.439102 -1.027639,1.075883 -1.055748,1.817978 0.0061,0.293722 -0.121767,0.580419 -0.418579,0.680061 -1.112041,0.474618 -1.722382,1.66198 -1.869136,2.812749 -0.206311,1.438489 -0.282448,2.924304 0.0072,4.356322 0.04229,0.3415 0.302586,0.600913 0.371555,0.925525 -0.03819,1.034077 -0.419187,2.015842 -0.603065,3.027723 -0.127304,0.766815 -0.375573,1.590167 -0.09973,2.350759 0.263528,0.617474 1.010688,0.803929 1.619023,0.680064 1.278366,-0.244745 2.205312,-1.275321 3.128489,-2.092897 0.268843,-0.219884 0.534746,-0.507357 0.863515,-0.609263 0.392922,0.443386 0.572812,1.111752 0.28112,1.657262 -0.210913,0.631484 -0.703689,1.191469 -0.703834,1.879471 0.04006,0.523761 0.630523,0.693023 1.073319,0.64699 1.355495,-0.02851 2.433989,-1.018661 3.504697,-1.688787 1.014786,-0.638443 2.079594,-1.196803 3.007567,-1.972488 1.64829,-1.323197 3.189771,-2.783673 4.602302,-4.355808 0.631923,-0.696717 1.083591,-1.563987 1.179256,-2.508372 0.08908,-0.809183 0.211482,-1.672283 -0.07855,-2.454116 -0.191248,-0.488292 -0.633883,-0.816356 -1.116211,-0.980819 -0.275026,-0.199281 -0.171254,-0.611753 -0.258381,-0.905885 -0.166352,-1.186321 -1.15542,-1.984304 -1.960089,-2.770376 -0.879586,-0.851043 -1.980422,-1.505026 -3.207554,-1.673799 -1.000993,-0.162171 -2.020255,-0.188822 -3.032374,-0.195336 z m 12.692766,1.910476 c -0.817211,0.06489 -1.223568,0.91231 -1.711008,1.457275 -0.407066,0.542721 -0.954423,1.344282 -0.468706,1.998329 0.536305,0.586097 1.418346,0.364826 2.122868,0.391708 0.974416,-0.0826 1.999306,-0.140102 2.893364,-0.567926 0.542737,-0.273153 0.522116,-1.037457 0.07441,-1.387512 -0.742894,-0.698399 -1.560859,-1.347594 -2.471684,-1.810742 -0.13983,-0.05354 -0.289079,-0.08502 -0.439248,-0.08113 z m -15.729791,2.00918 c 0.81889,0.02944 1.554003,0.690732 1.636077,1.513086 0.203123,1.297591 -0.177575,2.680973 -1.081071,3.645773 -0.564949,0.593482 -1.362242,1.210852 -2.234489,1.018027 -0.529674,-0.204608 -0.919612,-0.779595 -0.836641,-1.354442 0.01669,-1.170681 0.163504,-2.338528 0.604612,-3.423563 0.333997,-0.759169 1.029142,-1.432697 1.911512,-1.398881 z m 5.988782,0.32298 c 1.249122,-0.04009 2.296745,0.937654 2.80138,2.006078 0.467278,1.079154 0.519784,2.451463 -0.185518,3.442166 -0.69273,0.952177 -1.950498,1.591694 -3.130558,1.297596 -0.704355,-0.17998 -1.15692,-0.87821 -1.159619,-1.586465 -0.131439,-1.662044 0.163248,-3.362786 0.882116,-4.868437 0.134271,-0.319106 0.50488,-0.283162 0.792199,-0.290938 z m -12.629721,7.438821 c -0.679159,0.182967 -1.201954,0.728043 -1.851564,0.99632 -0.830655,0.474443 -1.771952,0.702649 -2.621545,1.12603 -0.406329,0.305067 -0.173635,0.867624 0.222208,1.056267 1.032515,0.779327 2.008917,1.647208 3.106269,2.333191 0.506971,0.17635 0.815575,-0.352523 0.856795,-0.781865 0.265583,-1.401572 0.627822,-2.78669 0.842327,-4.196644 -0.01881,-0.286213 -0.254807,-0.544248 -0.55449,-0.533299 z m 13.03228,6.117973 c -0.693214,0.06236 -0.704895,0.910696 -0.702281,1.436603 0.05067,1.651468 0.197863,3.349064 0.83199,4.890659 0.239776,0.543854 0.778838,1.201502 1.443323,0.892453 0.751303,-0.44132 1.127181,-1.297594 1.507919,-2.044838 0.295748,-0.614111 0.515599,-1.365914 0.109035,-1.988508 -0.647131,-1.148233 -1.540262,-2.168742 -2.575036,-2.982248 -0.181303,-0.120338 -0.392108,-0.218183 -0.61495,-0.204121 z" id="path4572"/> <path style="opacity:1;vector-effect:none;fill:#681c1c;fill-opacity:1;stroke:none;stroke-width:0.86337662;stroke-linecap:square;stroke-linejoin:bevel;stroke-miterlimit:4;stroke-dasharray:none;stroke-dashoffset:0;stroke-opacity:1;paint-order:markers stroke fill" d="m -104.92561,230.28009 c -0.9692,0.34046 -1.28278,1.53095 -1.86242,2.28669 -0.32429,0.6694 -1.22874,1.6795 -0.34313,2.29185 0.77351,0.61597 1.43,1.46068 2.34301,1.84691 0.87817,-0.3673 0.58478,-1.59867 0.68006,-2.38538 -0.0654,-1.25169 0.11653,-2.57377 -0.24185,-3.78117 -0.12714,-0.1825 -0.35489,-0.2853 -0.57567,-0.2589 z m 35.591107,0.2744 c -0.950674,0.25503 -0.725146,1.51434 -0.903303,2.26291 -0.285591,2.04939 -0.199289,4.17098 -0.748276,6.17172 -0.372642,0.74611 -1.08367,1.3168 -1.90531,1.43402 -0.962652,0.69648 -0.891394,2.08341 -1.109493,3.13883 -0.0291,0.64677 -0.374126,1.90625 0.636138,1.90583 2.072868,-0.64884 4.284546,-0.47074 6.420797,-0.36846 0.947939,0.093 1.85578,0.85273 2.814299,0.55759 0.723953,-0.49807 -0.03496,-1.21368 -0.391708,-1.66088 -1.18614,-1.78394 -1.874641,-3.83407 -1.970423,-5.94279 -0.305747,-2.45474 -0.870257,-4.95887 -2.112016,-7.11791 -0.167552,-0.22769 -0.438729,-0.4034 -0.730705,-0.38086 z" id="path4586"/> <path style="opacity:1;vector-effect:none;fill:#a05a2c;fill-opacity:1;stroke:none;stroke-width:1.22099888;stroke-linecap:square;stroke-linejoin:bevel;stroke-miterlimit:4;stroke-dasharray:none;stroke-dashoffset:0;stroke-opacity:1;paint-order:markers stroke fill" d="m -89.922234,221.06453 c -3.298841,-0.20093 -6.50534,0.92701 -9.401508,2.40656 -2.011088,0.96175 -2.975388,3.15769 -3.069428,5.29034 -0.23131,2.85636 -0.37676,5.76285 -0.32267,8.60631 0.62606,0.90208 1.78669,-0.39835 2.59712,-0.52558 4.088498,-1.95326 8.624657,-2.24426 13.061354,-1.83071 4.498713,0.23672 8.847712,1.42177 13.218758,2.46396 1.226254,0.20048 1.069269,-1.46448 1.24941,-2.24522 0.264838,-2.62628 0.60238,-5.28635 0.672963,-7.90452 -1.865731,-2.2452 -4.536379,-3.82064 -7.330956,-4.71707 -2.748957,-1.16181 -5.718117,-1.6966 -8.699754,-1.54863 -0.658434,-0.001 -1.316858,0.003 -1.975289,0.005 z m 11.737083,6.03255 c 1.010005,0.24922 2.326111,0.72392 2.807086,1.69663 -1.030943,-0.22125 -2.397813,-0.6293 -3.112701,-1.54895 0.003,-0.14666 0.203428,-0.15401 0.305615,-0.14768 z m 0.213357,3.55954 c 0.741794,0.21705 1.788909,0.4712 2.239143,1.03377 -0.74644,0.32136 -2.264376,-0.0439 -2.368222,-0.99733 0.01503,-0.0621 0.08345,-0.0365 0.129079,-0.0364 z" id="path4591"/> <path style="opacity:1;vector-effect:none;fill:#784421;fill-opacity:1;stroke:none;stroke-width:1.22099888;stroke-linecap:square;stroke-linejoin:bevel;stroke-miterlimit:4;stroke-dasharray:none;stroke-dashoffset:0;stroke-opacity:1;paint-order:markers stroke fill" d="m -90.583952,236.74649 c -4.0797,-0.0454 -8.195212,1.06832 -11.574598,3.37238 -0.68383,1.00512 0.2038,2.31247 0.31245,3.38833 1.17062,4.53863 1.18148,9.27417 1.946436,13.88814 0.860428,0.78173 1.970786,-0.39034 2.929335,-0.4681 4.162409,-0.83962 8.451024,0.24161 12.273139,1.89063 0.540491,0.30109 1.305026,0.65802 1.448343,1.26611 -0.616773,0.62019 -1.628807,-0.08 -2.367278,-0.10203 -3.090473,-0.78167 -6.21258,-1.66367 -9.43738,-1.41541 -2.913621,-0.0306 -5.459755,1.7922 -7.608065,3.57853 -2.14113,1.91001 -3.63263,4.4724 -4.66014,7.12023 0.10392,1.19198 1.7712,0.87592 2.61157,1.0816 7.112399,0.48284 14.410634,0.32547 21.23958,2.60474 0.752901,0.252 2.174703,0.3686 2.048094,-0.81499 1.735127,-10.5897 3.9584,-21.09345 6.219418,-31.57511 0.323403,-1.02907 -0.640527,-1.63443 -1.514782,-1.77712 -4.493395,-1.29665 -9.183682,-2.04549 -13.866122,-2.03793 z m 7.428116,7.05607 c 1.407065,0.12778 2.403192,1.43404 3.133585,2.51135 0.02978,0.4976 -0.715214,-0.25362 -0.911527,-0.29651 -1.018899,-0.76938 -2.114277,-1.51448 -3.188631,-2.15562 0.319164,-0.0485 0.644096,-0.0641 0.966573,-0.0592 z m 0.810541,6.96078 c 0.439581,0.28694 0.947753,1.17334 0.233862,0.5129 -0.107164,-0.10103 -0.291539,-0.49917 -0.233862,-0.5129 z m -5.938393,15.42342 c 0.484164,-0.24034 1.787117,0.56807 0.854959,0.86331 -1.731058,0.23456 -3.662606,0.60538 -5.301353,-0.15299 0.627419,-0.47315 1.939067,-0.44403 2.824323,-0.60386 0.545206,-0.0556 1.063498,-0.096 1.622071,-0.10646 z" id="path4593"/> <path style="opacity:1;vector-effect:none;fill:#784421;fill-opacity:1;stroke:none;stroke-width:1.22099888;stroke-linecap:square;stroke-linejoin:bevel;stroke-miterlimit:4;stroke-dasharray:none;stroke-dashoffset:0;stroke-opacity:1;paint-order:markers stroke fill" d="m -40.781024,248.18973 c -3.219485,0.0807 -6.46683,-0.0474 -9.669161,0.25854 -0.789945,0.74487 0.195728,1.89677 0.262578,2.78018 1.090671,3.28973 1.948521,6.69462 3.404407,9.84223 0.335663,0.76635 1.526527,0.76084 1.725864,-0.0999 0.192069,-0.54866 0.968607,-1.12288 1.138552,-0.28815 -0.289602,0.55585 -0.388194,1.77571 0.588068,1.50111 1.644841,-0.64425 3.22398,-1.76154 5.02535,-1.80331 -1.91993,1.42313 -4.024643,2.51277 -6.224645,3.40845 -0.643488,0.56508 -1.414783,1.73749 -0.793838,2.5178 1.38941,0.48388 2.948136,-0.0922 4.396291,-0.004 8.062846,-0.41104 16.18852,-0.70029 24.221593,-1.03275 0.691504,-0.61522 0.295497,-1.88168 0.01831,-2.69691 -1.744213,-3.55314 -5.54064,-5.5734 -9.158155,-6.76184 -4.41506,-1.32683 -9.379228,-1.12547 -13.515335,1.00264 -0.625072,0.33304 -1.584722,0.69513 -1.86595,-0.28132 1.12181,-1.60204 3.188933,-2.21986 4.902346,-2.98552 1.684652,-0.66811 3.594351,-0.35938 5.270978,-0.88875 0.216422,-1.34765 0.149842,-2.82458 0.04334,-4.18025 -0.73261,-0.77309 -2.173256,-0.13794 -3.177622,-0.33223 -2.197656,0.0147 -4.395309,0.0294 -6.592962,0.0441 z m 2.149544,15.12085 c 0.981389,0.0162 -0.363183,0.62133 -0.744101,0.70841 -0.523052,0.1269 -1.344888,0.39151 -1.657528,0.13592 0.249383,-0.87403 1.711148,-0.77205 2.401629,-0.84433 z" id="path4595"/> <path style="fill:#000000;stroke-width:0.35522279" d="m -81.522264,276.17041 c -0.0843,-0.0843 -2.06909,-0.6381 -4.41068,-1.23071 -3.77419,-0.95516 -5.18483,-1.11648 -12.42757,-1.42121 -10.615576,-0.44665 -12.064066,-0.86293 -12.058506,-3.46551 0.004,-1.78839 2.17559,-5.03055 5.83651,-8.71315 l 2.71257,-2.72862 -0.25784,-2.06688 c -0.14182,-1.13679 -0.27133,-3.54214 -0.28782,-5.34524 -0.0299,-3.2695 -0.92575,-7.1161 -2.04702,-8.78945 -0.25823,-0.38537 -0.46951,-1.26822 -0.46951,-1.96188 0,-1.10699 -0.30533,-1.5425 -2.49728,-3.56199 l -2.49727,-2.3008 0.19069,-2.07195 c 0.10488,-1.13957 0.90783,-4.22925 1.78433,-6.86595 2.11135,-6.35136 2.81855,-9.12705 2.364,-9.27856 -0.19831,-0.0661 -1.37079,-0.88206 -2.6055,-1.81322 -4.07526,-3.07338 -8.18209,-5.75425 -10.93646,-7.13912 -1.49337,-0.75085 -2.92502,-1.61799 -3.18145,-1.92697 -0.4897,-0.59005 -0.53064,-0.49356 1.2571,-2.96297 0.55843,-0.77137 0.5184,-0.86753 -1.15202,-2.7675 -5.18531,-5.89786 -7.90352,-10.67485 -12.22062,-21.47657 -1.21031,-3.02828 -3.00067,-6.99937 -3.9786,-8.82466 -2.17997,-4.0689 -2.09303,-4.45555 1.4017,-6.2342 1.32565,-0.6747 5.3675,-3.08056 8.9819,-5.34636 4.49779,-2.81959 6.82137,-4.07732 7.36304,-3.98554 0.56464,0.0957 0.85535,-0.0804 1.01452,-0.6144 0.39759,-1.33391 2.68642,-5.70083 3.38684,-6.46182 l 0.68129,-0.7402 -1.87193,0.15523 c -1.56767,0.13001 -1.98131,0.0344 -2.54481,-0.58828 -1.03254,-1.14094 -1.16342,-3.86293 -0.26994,-5.61428 1.37607,-2.69733 5.86488,-6.92732 10.71798,-10.09998 0.87487,-0.57194 0.8576,-0.58237 -1.95913,-1.1838 -4.22924,-0.90303 -5.12123,-1.23854 -5.71927,-2.15126 -0.48882,-0.74604 -0.48704,-0.93823 0.0178,-1.91439 0.41967,-0.81155 1.32522,-1.44979 3.59205,-2.5317 1.667,-0.79563 4.2315,-2.23035 5.69889,-3.18827 l 2.66796,-1.74167 -1.88541,-0.94826 c -5.7937,-2.9139 -11.21701,-6.71271 -12.75845,-8.93678 -1.96038,-2.82854 -2.22821,-6.07816 -0.68014,-8.252223 0.43812,-0.615296 0.78811,-1.469109 0.77775,-1.897366 -0.0104,-0.428253 -0.12775,-2.696848 -0.26085,-5.041318 -0.27774,-4.892119 0.0674,-7.13172 1.59744,-10.367078 1.65335,-3.496023 4.04177,-4.826108 11.0988,-6.180808 6.51649,-1.250934 11.637346,-0.682659 17.487856,1.940669 1.15342,0.517187 2.13093,0.898308 2.17225,0.846935 0.0413,-0.05137 0.35854,-0.972583 0.70496,-2.047132 1.94036,-6.018834 6.69917,-12.583574 11.72112,-16.169196 3.32959,-2.377288 6.44233,-3.192095 12.07758,-3.161482 3.3421,0.01816 5.01045,0.18129 6.03879,0.590482 0.78149,0.310967 3.25917,1.283771 5.50595,2.161785 2.24678,0.878014 5.94309,2.479129 8.21401,3.558034 3.85242,1.830268 4.28953,2.14577 6.52672,4.710912 1.31877,1.512097 2.61778,3.275852 2.8867,3.919455 0.82727,1.979948 0.62796,7.2604 -0.42776,11.332901 -1.68234,6.48972 -2.1701,7.654581 -7.72099,18.43926 -0.90042,1.7494 -1.5764,3.24146 -1.50217,3.31569 0.39454,0.39453 7.45339,-1.13778 11.09476,-2.40841 6.01279,-2.09812 7.22784,-2.34938 8.91564,-1.84371 1.84883,0.55393 3.17832,1.6377 3.78232,3.08329 2.02828,4.85436 1.07574,11.0947 -2.21446,14.50756 -2.50247,2.59575 -9.04044,5.19068 -14.99064,5.9498 -1.66066,0.21187 -3.48695,0.49386 -4.05841,0.62664 l -1.03902,0.24142 1.08477,1.23763 c 1.41829,1.61814 2.34046,4.29271 1.88926,5.47944 -0.18399,0.48395 -1.00549,1.32392 -1.82554,1.8666 -1.31026,0.86709 -1.827,0.9867 -4.26271,0.9867 h -2.77171 l 0.56484,0.86206 c 1.35121,2.0622 1.88295,3.20914 2.60938,5.62832 0.89113,2.96763 0.69618,2.92486 5.14497,1.12901 1.36761,-0.55207 3.36574,-1.30127 4.44029,-1.6649 1.75333,-0.59333 1.97194,-0.78 2.13134,-1.82 0.19629,-1.28078 0.54656,-1.44754 7.21565,-3.43539 3.52492,-1.05067 4.30589,-0.97864 6.05678,0.55866 0.98381,0.8638 1.52865,1.06157 2.9371,1.06609 4.09242,0.0131 7.5878803,1.49506 10.4321773,4.4228 l 1.5985,1.6454 2.48656,-0.21592 c 1.36761,-0.11876 4.53794,-0.62388 7.04518,-1.12249 4.41075,-0.87716 4.61915,-0.88753 6.4242297,-0.31976 3.98668,1.25396 8.61655,-1.01075 10.47939,-5.12603 0.8695,-1.92087 0.92693,-3.48093 0.1928,-5.23794 -0.71312,-1.70674 -1.45328,-2.49471 -3.16298,-3.36728 -2.22349,-1.1348 -4.48721,-0.99908 -6.45355,0.38693 -0.91748,0.6467 -1.97028,1.10555 -2.3970097,1.04471 -0.63667,-0.0908 -0.77858,-0.38314 -0.86898,-1.79037 -0.13221,-2.05801 0.67931,-3.92092 1.9627697,-4.5057 1.42874,-0.65098 6.72929,-1.19896 9.56149,-0.98849 5.80006,0.43102 10.31952,4.49956 11.87932,10.69408 0.59532,2.36422 0.20237,7.73842 -0.75241,10.29028 -0.5543,1.4815 -1.3283,2.56228 -2.97557,4.15492 -1.22452,1.18391 -2.71149,2.44756 -3.30437,2.80811 -1.95045,1.18614 -8.83056,3.20778 -10.83947,3.18505 -2.91288,-0.033 -5.1883897,-0.513 -6.2889897,-1.32671 l -1.0072,-0.74465 -3.32644,0.68637 c -1.82954,0.37751 -3.90042999,0.68848 -4.60198999,0.69105 -1.25278001,0.005 -1.28324001,0.039 -1.70556001,1.92612 -0.66449,2.96927 -2.99288,7.44586 -4.82648,9.27946 -1.722697,1.7227 -6.1157973,4.06991 -7.6345673,4.0791 -1.44107,0.009 -1.77532,0.44205 -2.19978,2.85177 -0.28731,1.6311 -0.66376,2.53752 -1.33095,3.20471 -0.87415,0.87415 -1.19807,0.94368 -5.36523,1.15169 l -4.43492,0.22138 -0.88985,-1.02448 -0.88985,-1.02449 -6.39222,2.31168 c -3.51571,1.27143 -7.16804,2.52714 -8.11626,2.79049 -0.94823,0.26334 -1.78969,0.54444 -1.86991,0.62466 -0.28596,0.28595 4.40445,10.84791 5.57372,12.55102 0.65497,0.95401 2.61102,3.65277 4.34678,5.99724 3.74107,5.05303 5.81095,8.48018 9.1628,15.17113 3.05733,6.10301 4.65215,10.44208 5.60356,15.24573 0.74197,3.74618 1.46375,12.30821 1.46375,17.36349 0,3.80353 -0.12523,3.90456 -4.83945,3.90456 h -3.72303 l 0.10737,1.81813 0.10737,1.81813 2.6244,0.66484 c 7.3198,1.85432 12.10392,6.22315 12.11388,11.06229 0.004,1.98879 -0.76722,2.97221 -2.55208,3.25389 -1.96457,0.31004 -29.35548,0.98658 -30.11995,0.74395 -0.39791,-0.12629 -0.79904,-0.64838 -0.90641,-1.17974 -0.40759,-2.01698 -1.56189,-6.16717 -3.4019,-12.23124 l -1.91309,-6.30493 -2.48656,-0.0506 c -3.05639,-0.0622 -3.61258,-0.0346 -5.02354,0.24976 -0.75945,0.15306 -1.96118,-0.0668 -3.76083,-0.68791 -1.4546,-0.50207 -3.53297,-1.01724 -4.61857,-1.14483 -2.40272,-0.28239 -5.49528,0.37394 -5.75406,1.22118 -0.42896,1.40447 -4.46532,24.12146 -4.46532,25.13126 0,1.63774 -1.75043,3.60574 -2.52139,2.83478 z m -0.32039,-4.17363 c 0,-1.47427 4.24823,-23.28221 5.54394,-28.45938 0.47908,-1.91421 0.79074,-3.61032 0.69259,-3.76913 -0.27191,-0.43995 -3.87626,-1.36543 -7.83503,-2.01178 -4.60767,-0.7523 -9.32792,-0.75667 -12.25519,-0.0114 -2.71746,0.69189 -6.012556,2.21937 -6.277596,2.91004 -0.10268,0.26756 0.15586,1.48891 0.57452,2.7141 0.43473,1.27223 0.91524,3.97963 1.12038,6.31268 0.19756,2.24678 0.440266,4.91199 0.539366,5.9227 l 0.18018,1.83763 1.48755,-0.67536 c 2.00049,-0.90824 5.37571,-0.88507 9.14601,0.0628 4.75774,1.19612 7.16004,2.7686 5.86791,3.84097 -0.37531,0.31148 -1.47527,0.14942 -4.69924,-0.69236 -5.86732,-1.53197 -7.82516,-1.53381 -10.89398,-0.0102 -3.261196,1.61906 -5.562596,3.88109 -7.117566,6.9958 l -1.26816,2.54018 0.96362,0.26066 c 0.52998,0.14337 3.04166,0.30736 5.5815,0.36442 6.595416,0.14819 11.645266,0.7336 14.919356,1.72955 3.55133,1.08028 3.72984,1.0869 3.72984,0.1381 z m -11.1537,-4.6612 c -1.02438,-0.74904 0.0275,-1.28276 3.02785,-1.53639 2.18537,-0.18473 2.7173,-0.12406 3.11516,0.35534 0.38449,0.46328 0.39195,0.68393 0.0376,1.11094 -0.57363,0.69118 -5.25854,0.74433 -6.18058,0.0701 z m 10.70967,-15.55076 c -0.62163,-0.36207 -0.88195,-1.74766 -0.32833,-1.74766 0.48077,0 1.86457,1.63116 1.60446,1.89127 -0.31534,0.31535 -0.52953,0.29124 -1.27613,-0.14361 z m 0.46964,-5.81132 c -0.80437,-0.67203 -1.77859,-1.32221 -2.16494,-1.44483 -0.86877,-0.27574 -0.92868,-1.22585 -0.0808,-1.28165 1.4851,-0.0977 2.12346,0.1735 3.42526,1.45532 0.90406,0.89017 1.30757,1.55735 1.16562,1.92727 -0.31502,0.82093 -0.70923,0.71064 -2.34513,-0.65611 z m 53.87945,19.2831 11.10071,-0.42811 v -0.86448 c 0,-3.17646 -5.34788,-7.09952 -11.24843,-8.25155 -3.58632,-0.7002 -6.9789,-0.34463 -9.96908,1.04484 -2.11874,0.98453 -2.66283,1.11501 -3.1082,0.74538 -0.96038,-0.79704 -0.5997,-1.66999 1.14743,-2.77707 2.22992,-1.41301 4.68425,-2.20189 6.85045,-2.20189 h 1.7637 V 250.57 248.61627 h -9.62062 c -7.55466,0 -9.58237,0.0953 -9.44252,0.44403 0.0979,0.24421 1.09359,3.22728 2.21253,6.62904 2.11623,6.43371 2.03484,6.32237 3.22669,4.41363 0.3319,-0.53154 0.52932,-0.57627 1.06566,-0.24143 0.67564,0.4218 0.70351,0.5728 0.29796,1.61441 -0.18489,0.47489 0.17547,0.38199 1.68076,-0.43331 2.2039,-1.19369 4.36314,-1.54209 4.36314,-0.70402 0,0.5596 -6.11756,4.01047 -6.59094,3.7179 -0.14668,-0.0907 -0.43787,0.3262 -0.64708,0.92635 l -0.38039,1.09118 3.09876,-0.19467 c 1.70432,-0.10706 8.09408,-0.38731 14.19947,-0.62278 z m -13.54967,-0.59447 c -0.35542,-0.57507 0.13365,-1.39683 0.96383,-1.61948 1.44525,-0.38761 3.08363,-0.24295 3.08363,0.27227 0,0.79301 -3.64097,2.00492 -4.04746,1.34721 z m 17.80372,-25.54807 c -0.32247,-10.62289 -1.67461,-16.07833 -6.27991,-25.33743 -3.31761,-6.67015 -4.86788,-9.22471 -9.57608,-15.77961 -4.56406,-6.35421 -6.11111,-9.21808 -8.05935,-14.91935 -0.73439,-2.1491 -1.54641,-4.03528 -1.80449,-4.19152 -0.78962,-0.47804 -0.52325,-1.53071 0.50764,-2.00613 1.63947,-0.75608 13.64747,-5.02098 15.54011,-5.5194 1.18893,-0.3131 1.72893,-0.62652 1.63174,-0.94708 -0.0799,-0.26351 -0.26967,-1.75792 -0.42172,-3.3209 -0.15205,-1.56298 -0.45607,-4.68006 -0.6756,-6.92684 -0.21952,-2.24679 -0.4921,-7.14047 -0.60572,-10.87485 l -0.20658,-6.78978 -2.88001,1.04899 c -1.58401,0.57694 -3.86136,1.35672 -5.06079,1.73283 -1.19942,0.37611 -2.34115,0.88141 -2.53717,1.1229 -0.19602,0.24148 -0.63841,1.47808 -0.98309,2.748 -1.06031,3.90652 -2.10033,5.34086 -4.94553,6.82066 -2.14978,1.1181 -3.17865,1.31615 -5.32463,1.02494 -1.08216,-0.14686 -1.96756,-0.15969 -1.96756,-0.0285 0,0.13116 0.38928,1.5031 0.86506,3.04874 1.31764,4.2805 1.71038,7.57006 1.23186,10.31791 -0.91167,5.23518 -5.49695,7.97349 -9.73421,5.81321 -0.76642,-0.39074 -1.42263,-0.71044 -1.45824,-0.71044 -0.10063,0 0.51561,2.7856 1.15911,5.23953 l 0.58219,2.22015 h 1.55993 c 5.55408,0 7.70857,6.44196 3.84749,11.50409 -1.15593,1.51552 -3.25911,2.98542 -4.93283,3.44756 l -1.29048,0.35632 v 2.10787 c 0,2.01265 0.0441,2.1172 0.97686,2.31424 1.51243,0.3195 5.08864,2.02288 6.20962,2.95768 1.97921,1.65051 2.57661,4.13809 1.57078,6.54072 -0.63801,1.52402 -3.00811,3.61658 -4.71457,4.1625 -1.86222,0.59574 -1.90099,0.65762 -1.55793,2.48652 0.28976,1.54478 -0.0844,14.46853 -0.5554,19.18203 -0.22062,2.20802 -0.17855,2.38598 0.9625,4.07127 2.23059,3.29452 1.64247,3.18379 18.06629,3.40152 7.91258,0.10489 15.88871,0.22478 17.72471,0.26641 l 3.33819,0.0757 z m -13.45335,-14.07405 c -2.39589,-0.9855 -3.63672,-1.90762 -5.19601,-3.86141 -1.99669,-2.50186 -2.61992,-3.73282 -2.50097,-4.93972 0.17549,-1.78053 0.75937,-1.55996 2.07844,0.78516 1.53382,2.72692 4.03861,5.08804 6.65906,6.27713 2.26749,1.02892 2.69944,1.45683 2.14498,2.1249 -0.51059,0.61523 -0.85172,0.57389 -3.1855,-0.38606 z m -27.39434,19.75761 c -1.22671,-1.36214 -2.39207,-4.28083 -2.39628,-6.00157 -0.007,-2.8467 -1.81958,-8.39055 -2.51576,-7.69437 -0.15841,0.15841 -0.40122,2.03895 -0.53957,4.17899 -0.21946,3.39448 -0.35554,3.99496 -1.06642,4.70584 -0.44817,0.44817 -1.0448,0.81486 -1.32584,0.81486 -0.61515,0 -0.80605,0.44799 -1.14008,2.6755 -0.23577,1.57218 -0.20438,1.68078 0.41545,1.43742 1.47,-0.57715 5.62686,-0.62547 7.06449,-0.0821 1.88866,0.71382 2.17211,0.70731 1.50401,-0.0346 z m -35.737126,-8.41979 c 3.155616,-1.44118 5.891986,-1.99888 9.900356,-2.01782 4.15792,-0.0196 11.15551,1.0304 14.60036,2.19089 1.19792,0.40355 2.27671,0.63505 2.39732,0.51444 0.12061,-0.12061 0.40905,-2.32653 0.64099,-4.90206 l 0.4217,-4.68277 -1.4817,-1.34107 c -1.9487,-1.76376 -2.70086,-2.14993 -6.85941,-3.52172 -3.15527,-1.04083 -3.92585,-1.15651 -7.76553,-1.16574 -3.74113,-0.009 -4.62592,0.11142 -7.23149,0.98424 -5.707346,1.91184 -6.310366,2.81385 -6.518826,9.751 -0.0837,2.78405 -0.1205,5.06192 -0.0819,5.06192 0.0386,0 0.92878,-0.39209 1.9781,-0.87131 z m 23.043606,-4.22806 c -0.86143,-0.28171 -1.27815,-0.65206 -1.3568,-1.20583 -0.13562,-0.95498 0.39201,-1.0177 2.20147,-0.26165 1.36429,0.57003 1.56297,0.92672 0.84263,1.51278 -0.3027,0.24629 -0.83973,0.23186 -1.6873,-0.0453 z m -0.0888,-3.48351 c -1.14751,-0.50563 -1.68731,-0.95628 -1.68731,-1.40864 0,-0.91036 1.11833,-0.858 2.8645,0.13409 1.29834,0.73765 1.71509,1.65849 0.86534,1.91204 -0.19538,0.0583 -1.11452,-0.22858 -2.04253,-0.63749 z m -27.263346,4.65446 c 0,-1.61827 -0.13979,-2.77635 -0.32157,-2.664 -0.17686,0.1093 -0.75953,0.94608 -1.29483,1.8595 l -0.97327,1.66076 1.12282,1.00325 c 0.61756,0.55178 1.20023,1.00324 1.29484,1.00324 0.0946,0 0.17201,-1.28823 0.17201,-2.86275 z m 38.565826,-14.29521 c -0.2111,-1.6896 -0.36456,-1.98791 -1.1202,-2.17756 -1.42836,-0.35849 -3.53664,-2.52016 -4.01494,-4.11659 -1.17211,-3.91215 -0.18248,-8.11052 2.2163,-9.40235 0.79662,-0.42901 1.2361,-0.89112 1.12437,-1.18227 -0.10088,-0.26289 -0.18342,-1.30774 -0.18342,-2.32188 0,-1.7432 -0.0679,-1.88048 -1.24413,-2.5139 -1.62049,-0.87269 -2.81936,-2.47893 -3.57534,-4.79022 -0.52047,-1.59125 -0.54719,-2.13971 -0.18342,-3.7652 0.5271,-2.35535 2.43356,-4.61944 4.47006,-5.3086 0.78149,-0.26446 1.41949,-0.61558 1.41779,-0.78028 -0.01,-0.95748 -1.3976,-6.51993 -1.60596,-6.4374 -0.13772,0.0545 -1.34347,1.29805 -2.67945,2.76334 -3.02776,3.32084 -4.49751,4.50877 -6.14441,4.96622 -2.88503,0.80137 -5.0394,0.2937 -8.2402,-1.94177 -1.25676,-0.87774 -2.51605,-1.59762 -2.79842,-1.59972 -0.28237,-0.002 -0.95858,0.42267 -1.50268,0.94396 l -0.98928,0.94779 1.2605,1.22419 c 1.35242,1.31345 1.92247,2.44918 1.92247,3.83019 0,0.47572 0.20267,0.86494 0.45037,0.86494 1.91518,0 6.65408,6.34754 6.65408,8.91284 0,1.68796 -0.82086,2.3833 -3.78322,3.20474 -1.31216,0.36385 -2.52383,0.86336 -2.69259,1.11002 -0.39169,0.5725 -0.065,3.57838 0.58921,5.42159 0.5532,1.55858 0.40118,1.52355 4.06576,0.93684 2.8499,-0.45627 5.20911,-0.0182 8.06301,1.4973 1.48185,0.78688 2.13919,1.35485 2.21908,1.91734 0.15023,1.05777 -0.55982,1.03507 -2.77768,-0.0888 -2.39557,-1.21393 -3.44058,-1.14881 -1.51548,0.0944 3.41005,2.20222 1.81513,2.80167 -2.3275,0.87478 -3.53412,-1.64384 -4.7423,-1.97858 -6.08051,-1.68466 -0.83281,0.18292 -1.00604,0.47194 -1.38629,2.31298 -0.51548,2.49567 -1.72985,4.09791 -3.75912,4.95974 l -1.43402,0.60903 3.64126,0.0716 c 5.65246,0.11119 12.19219,2.17862 15.31015,4.84007 1.0297,0.87894 2.08575,1.59807 2.34677,1.59807 0.26101,0 0.76747,0.54103 1.12546,1.20228 0.358,0.66125 1.13045,1.83889 1.71657,2.61697 l 1.06567,1.41471 0.31199,-4.53349 c 0.1716,-2.49342 0.20192,-5.4145 0.0674,-6.4913 z m -35.350166,2.52104 c 0.49869,-0.3694 2.257046,-1.12114 3.907446,-1.67054 2.94786,-0.98131 2.97883,-1.00359 1.75745,-1.26461 -0.6838,-0.14614 -1.7712,-0.58639 -2.41644,-0.97835 -0.64524,-0.39196 -1.21231,-0.65445 -1.26016,-0.58332 -0.0478,0.0711 -0.27579,0.56891 -0.50653,1.10619 -0.408096,0.95023 -1.262186,1.2945 -1.650946,0.66547 -0.10585,-0.17126 0.0555,-1.14639 0.35859,-2.16695 0.53978,-1.81761 0.46307,-3.08718 -0.16315,-2.70016 -0.17343,0.10719 -0.39967,0.5569 -0.50277,0.99938 -0.45932,1.97127 -2.35433,9.04301 -2.59531,9.68507 -0.14666,0.39075 0.28049,0.006 0.94922,-0.85505 0.66874,-0.86103 1.6239,-1.86773 2.1226,-2.23713 z m 9.661776,-6.52374 c 1.46408,-0.49886 1.69575,-0.73053 2.19461,-2.19461 0.69931,-2.05236 0.70506,-3.49003 0.0217,-5.4269 -1.91019,-5.41405 -0.43043,-9.08994 3.92195,-9.74262 0.89574,-0.13433 1.71558,-0.47086 1.82187,-0.74786 0.26255,-0.68413 -3.79196,-6.90631 -4.50028,-6.90631 -0.15137,0 -0.36675,0.35966 -0.47862,0.79925 -0.11187,0.43959 -1.24631,2.21189 -2.52098,3.93844 -1.27466,1.72654 -2.89565,4.36407 -3.60218,5.86117 -0.70653,1.4971 -1.98217,4.16065 -2.83476,5.919 -1.3316,2.74627 -1.50958,3.37229 -1.2624,4.44028 0.97033,4.19248 3.19268,5.43892 7.23912,4.06016 z m 30.02707,-0.91164 c 1.76973,-0.85672 2.91592,-2.4489 2.91789,-4.05329 0.003,-2.09016 -4.34381,-5.13401 -7.33097,-5.13401 -1.95051,0 -3.01377,1.15498 -3.24108,3.52067 -0.24196,2.51814 0.14297,4.08106 1.31382,5.33445 0.88902,0.9517 1.25904,1.09112 2.89592,1.09112 1.19062,0 2.44978,-0.27744 3.44442,-0.75894 z m -42.180646,-1.81643 c 0.25017,-0.63496 1.29461,-2.67305 2.321,-4.52909 1.02639,-1.85604 2.372296,-4.60795 2.990916,-6.11535 1.05137,-2.56189 2.92396,-5.70592 6.16022,-10.3429 0.7851,-1.12492 1.44073,-2.54021 1.54832,-3.34236 0.17359,-1.29424 0.0794,-1.48301 -1.35003,-2.70658 -1.30332,-1.11559 -1.70022,-1.27775 -2.61399,-1.06793 -2.48048,0.56955 -3.83389,0.103 -6.139276,-2.11637 -0.83033,-0.79935 -1.50969,-1.28268 -1.50969,-1.07407 0,0.2086 -2.9206,4.75766 -6.49023,10.109 -3.56962,5.35134 -6.93321,10.489 -7.47465,11.41702 -0.54144,0.92802 -1.13754,1.68731 -1.32468,1.68731 -0.83587,0 -0.1911,0.67796 1.52467,1.60314 2.07005,1.11622 7.40734,4.62195 9.81971,6.44995 0.85843,0.65049 1.67825,1.1827 1.82183,1.1827 0.14357,0 0.46572,-0.51951 0.71588,-1.15447 z m -12.35794,-16.23834 c 0.73236,-0.88639 2.63647,-3.52981 4.23136,-5.87428 1.59488,-2.34447 3.57092,-5.14185 4.3912,-6.2164 1.80966,-2.37062 3.86049,-5.66343 3.65518,-5.86874 -0.0823,-0.0823 -0.84478,0.19434 -1.69445,0.61472 -2.30315,1.13951 -4.91463,1.25931 -6.15239,0.28224 -1.99095,-1.57161 -3.65064,-6.48161 -4.03389,-11.93377 l -0.22899,-3.25757 -1.24892,0.34485 c -2.59562,0.71668 -4.21707,-1.24335 -3.86283,-4.66946 0.11239,-1.087 0.31454,-2.37599 0.44923,-2.86442 l 0.24489,-0.88806 -1.02754,0.94687 c -1.07491,0.99052 -8.46368,5.77327 -12.77552,8.26959 l -2.51219,1.45443 1.62665,3.1899 c 0.89466,1.75445 2.48794,5.34788 3.54063,7.98541 3.9873,9.99022 6.50515,14.55986 10.39769,18.87078 2.58728,2.86537 2.58853,2.86619 3.12832,2.04601 0.29701,-0.45128 1.13921,-1.54572 1.87157,-2.4321 z m 53.132866,-1.69274 c 2.10139,-1.69083 2.90405,-3.13601 2.90405,-5.22869 0,-1.83135 -0.42515,-2.68269 -1.3397,-2.68269 -0.26794,0 -0.72694,-0.23977 -1.02,-0.53283 -0.87308,-0.87308 -4.31432,-0.8189 -5.86575,0.0924 -1.26371,0.74225 -2.43123,2.90288 -2.43123,4.49925 0,1.68884 1.16726,3.94569 2.3997,4.63971 1.46295,0.82382 3.773,0.48415 5.35293,-0.7871 z m -13.90507,-13.29897 c 0.6213,-0.37314 1.63585,-1.27174 2.25456,-1.9969 2.97195,-3.48326 6.55991,-6.82442 7.32852,-6.82442 0.44404,0 1.56353,0.47955 2.48774,1.06567 0.92421,0.58612 2.14394,1.06567 2.71051,1.06567 2.20861,0 3.93332,-1.88546 4.40963,-4.82063 0.25496,-1.57117 -0.43108,-5.83782 -1.52788,-9.5022 -1.03717,-3.46516 -1.0681,-4.55529 -0.15277,-5.38366 0.6041,-0.5467 1.09195,-0.60048 3.52345,-0.38837 2.42151,0.21123 3.0155,0.14681 4.18312,-0.45363 2.30552,-1.18559 3.1386,-2.41158 4.04357,-5.95066 0.81917,-3.20354 0.82086,-3.25276 0.19101,-5.57962 -0.3495,-1.29116 -1.32659,-3.46855 -2.1713,-4.83863 -2.02264,-3.28062 -2.14537,-3.73354 -1.25341,-4.6255 0.62732,-0.62732 1.17552,-0.72861 3.94326,-0.72861 2.14719,0 3.55312,-0.17503 4.23397,-0.52712 0.9495,-0.491 0.99165,-0.60045 0.6153,-1.59751 -0.22221,-0.58872 -1.28861,-1.94575 -2.36976,-3.01562 l -1.96573,-1.94522 -3.55152,0.21604 -3.55153,0.21605 0.10156,7.6789 c 0.10735,8.11753 -0.10098,10.21736 -1.07466,10.83154 -0.89005,0.56143 -2.17933,-0.53447 -4.90889,-4.1726 -1.28138,-1.70789 -2.79516,-3.41055 -3.36397,-3.78369 -1.69392,-1.11119 -4.07469,-1.44518 -7.65853,-1.07441 -3.86902,0.40029 -5.6671,1.38757 -8.68018,4.76606 l -1.94083,2.1762 -0.979,-0.60429 c -3.18852,-1.96815 -3.8332,-2.18776 -6.87508,-2.34199 -5.58825,-0.28333 -9.65846,1.64495 -15.561616,7.37239 -3.23445,3.13817 -4.33151,3.72063 -4.57977,2.43151 -0.0629,-0.32665 0.83017,-2.16309 1.98461,-4.08098 1.15444,-1.9179 2.61468,-4.84581 3.24497,-6.50648 0.6303,-1.66066 2.32869,-5.98188 3.77421,-9.6027 1.445516,-3.62082 2.672436,-6.94678 2.726486,-7.39102 0.0859,-0.70577 -0.25649,-0.94581 -2.712696,-1.90187 -2.42644,-0.94447 -2.8638,-1.02237 -3.19701,-0.56946 -0.6977,0.94832 -5.30458,3.91995 -8.19949,5.28901 -1.66669,0.78821 -2.62077,1.41609 -2.30894,1.51952 0.29227,0.0969 1.89013,0.45159 3.5508,0.78812 3.52653,0.71464 4.83749,1.29049 5.14523,2.26007 0.36937,1.16378 -0.39806,2.03978 -3.6447,4.16031 -3.96027,2.58664 -9.12457,7.65191 -9.48364,9.30178 -0.14239,0.65427 -0.11644,1.33203 0.0577,1.50614 0.18526,0.18526 1.34947,0.11974 2.80689,-0.15796 4.44709,-0.84736 5.27465,0.43693 2.40898,3.73844 -2.70436,3.11565 -5.46055,9.76009 -5.46055,13.16394 v 1.22123 l 1.86548,-0.1547 c 2.75102,-0.22814 3.17525,0.37919 3.48842,4.9941 0.28831,4.24863 1.17475,7.99796 2.26871,9.59589 0.64046,0.9355 0.98097,1.11959 1.9288,1.0428 0.63308,-0.0513 1.79191,-0.42021 2.57519,-0.81981 2.16436,-1.10417 3.42046,-0.82046 4.82881,1.09068 3.306656,4.48715 4.436046,5.30028 5.732326,4.12716 0.34941,-0.31621 1.07926,-0.57493 1.62188,-0.57493 0.54605,0 1.56455,-0.45289 2.28097,-1.01427 2.85601,-2.23793 3.59519,-2.2173 6.9293,0.19331 1.98959,1.43851 4.51226,2.2863 5.90984,1.98611 0.48843,-0.10491 1.39639,-0.49604 2.01769,-0.86918 z m 3.51789,-15.2396 c -1.74205,-0.15423 -5.25876,-0.60454 -7.8149,-1.00068 -2.55614,-0.39614 -6.4858,-0.90077 -8.73258,-1.12141 -2.24679,-0.22063 -5.79337,-0.79809 -7.88128,-1.28324 -2.876996,-0.66849 -3.967446,-0.79044 -4.503356,-0.50362 -0.77598,0.41529 -1.68154,0.20562 -1.92512,-0.44572 -0.30979,-0.8284 0.45082,-8.56519 1.00654,-10.23831 0.94338,-2.84024 1.54358,-3.10259 7.016416,-3.06698 4.32764,0.0282 5.07085,-0.0707 9.66141,-1.28485 10.8012,-2.85687 15.70993,-4.85517 18.96563,-7.72072 2.90086,-2.55323 3.64224,-1.85258 5.9084,5.58377 1.09597,3.59644 1.28786,4.72866 1.27607,7.52952 -0.0318,7.56598 -1.74485,11.57781 -5.66543,13.26814 -1.63093,0.70317 -2.28957,0.72876 -7.3118,0.2841 z m 6.50189,-3.15227 c 1.45298,-0.74126 2.1724,-1.63895 2.81429,-3.51167 0.54121,-1.57896 -0.15029,-4.46378 -0.9853,-4.11053 -1.73732,0.73497 -4.85919,1.56295 -5.8931,1.56295 -0.83096,0 -1.31454,-0.21564 -1.57501,-0.70234 -0.47417,-0.886 -0.0812,-1.14337 3.7157,-2.43343 2.2867,-0.77694 2.98706,-1.19231 3.63733,-2.15725 1.51923,-2.25439 1.61568,-3.41043 0.58697,-7.03543 l -0.92803,-3.27027 -1.1104,0.83453 c -2.83868,2.13344 -8.53448,4.52835 -14.91976,6.27328 -8.56036,2.33933 -12.76993,3.011 -15.76275,2.51508 -1.24917,-0.207 -2.4952,-0.29041 -2.768946,-0.18536 -0.68867,0.26427 -1.09973,2.60406 -0.52039,2.96212 0.24505,0.15145 1.370376,0.38 2.500736,0.50788 2.05017,0.23195 2.68279,0.71571 2.12217,1.62281 -0.21497,0.34784 -0.96232,0.41469 -2.95292,0.26414 -2.515846,-0.19027 -2.676666,-0.15848 -2.871476,0.56776 -0.41028,1.52953 -0.2464,2.36782 0.46289,2.36782 0.37342,0 2.331586,0.38636 4.351476,0.85859 2.01989,0.47223 5.51081,1.03667 7.75759,1.2543 2.24678,0.21764 6.08319,0.71423 8.52535,1.10354 3.81327,0.60788 8.76578,1.18336 11.6477,1.35345 0.44737,0.0264 1.42201,-0.26248 2.16588,-0.64197 z m 44.13976,9.34248 2.36096,-0.22302 0.39097,-1.99459 c 0.724,-3.69356 0.86216,-8.59841 0.43491,-15.43991 -0.81502,-13.051 -0.99104,-14.93369 -1.40925,-15.07309 -0.2248,-0.0749 -0.40872,-0.51177 -0.40872,-0.97076 0,-1.50159 -1.02542,-1.4247 -8.08132,0.606 l -1.5097,0.43449 0.0253,6.05421 c 0.0139,3.32982 0.1597,7.33301 0.324,8.89599 0.16431,1.56298 0.50204,5.18977 0.75052,8.05954 0.24847,2.86977 0.54226,5.20863 0.65285,5.19747 0.76955,-0.0776 1.011,0.32647 1.41775,2.37279 0.52211,2.62674 0.2891,2.53076 5.05175,2.08088 z m 9.73983,-8.07641 c 2.51972,-1.17331 4.2310603,-2.78955 5.6384073,-5.3251 2.52066,-4.54137 2.92288,-8.51063 1.22905,-12.12888 -1.749797,-3.7378 -6.2038073,-6.86515 -10.0015173,-7.02249 -1.31868,-0.0546 -1.83694,0.0507 -1.77545,0.36096 0.0477,0.24096 0.24902,3.27811 0.44725,6.74923 0.19822,3.47112 0.51448,7.8297 0.70279,9.68574 0.18831,1.85604 0.34671,4.53353 0.352,5.94998 0.009,2.43212 0.0541,2.57517 0.80888,2.57189 0.43959,-0.002 1.60895,-0.3805 2.59859,-0.84133 z M 18.258813,149.4793 c 3.82033,-1.07199 5.3899,-1.82383 7.37053,-3.53058 2.59934,-2.23989 3.2971,-3.41179 3.9155,-6.5761 1.55769,-7.97066 -2.61347,-14.40217 -9.68545,-14.93396 -2.40468,-0.18082 -2.41031,-0.17912 -1.08182,0.32607 1.41773,0.53912 1.96833,0.90003 3.58139,2.34758 2.73209,2.45175 3.3948,7.07962 1.52858,10.67445 -1.37236,2.64353 -2.49018,3.75197 -5.05913,5.01666 -2.49549,1.22852 -5.37312,1.71818 -7.42508,1.26345 -2.1505897,-0.47658 -3.6009297,-0.43712 -7.1044597,0.19329 -1.75835,0.31639 -4.25885999,0.67863 -5.55668,0.80497 l -2.35967,0.2297 0.47221,1.30789 c 0.25972,0.71934 0.56533,1.74748 0.67913,2.28475 0.16079,0.75905 0.41079,0.97687 1.12122,0.97687 1.24246001,0 7.91644,-1.37647 8.69546,-1.79339 0.80768,-0.43226 1.65915,-0.0987 1.9305,0.75622 0.46639,1.46947 4.9137097,1.79251 8.9777697,0.65213 z M -98.182904,138.34544 c 2.53251,-1.32237 5.24156,-1.97957 8.15997,-1.97957 2.85785,0 6.33975,0.73146 7.5641,1.58902 0.68361,0.47883 0.8842,0.37306 2.94059,-1.5506 2.20187,-2.05974 4.74541,-3.57671 6.04667,-3.60624 0.37791,-0.009 0.0676,-0.23639 -0.68946,-0.50626 -1.76053,-0.62754 -2.12402,-1.00822 -1.83431,-1.92103 0.36833,-1.1605 4.15999,-2.7595 8.16056,-3.44142 3.34735,-0.57057 3.54165,-0.56925 3.97772,0.0271 0.73842,1.00985 -0.003,1.8066 -2.32884,2.50336 -1.16795,0.34985 -2.0558,0.74571 -1.973,0.87969 0.0828,0.13397 0.83427,0.33797 1.66994,0.45333 0.83566,0.11536 2.60687,0.54636 3.93601,0.95777 2.3647,0.73195 3.29416,1.56304 2.37995,2.12806 -0.34431,0.21279 -0.1798,0.62191 0.66406,1.65146 0.61696,0.75272 1.67881,2.16733 2.35965,3.14356 l 1.23791,1.77499 v -7.31777 -7.31778 l -6.48282,-0.24683 c -6.76585,-0.25762 -14.09123,-0.93719 -19.76169,-1.8333 -2.90239,-0.45867 -11.38246,-2.38114 -12.65177,-2.86822 -0.29897,-0.11473 -0.52519,0.3541 -0.68496,1.41952 -0.13121,0.87495 -1.66894,5.32038 -3.41719,9.87874 -1.748246,4.55835 -3.179066,8.34357 -3.179586,8.4116 -3.5e-4,0.068 0.51856,-0.21791 1.15352,-0.63541 0.63496,-0.41751 1.873796,-1.13471 2.752976,-1.59377 z m 7.58313,-5.37606 c -0.88455,-0.88454 -0.92956,-1.40919 -0.26867,-3.13144 0.15504,-0.40403 -0.17933,-0.71214 -1.22837,-1.13188 -1.46474,-0.58607 -2.19056,-1.70615 -1.5322,-2.36451 0.24556,-0.24556 0.9701,-0.21108 2.25543,0.10736 1.0415,0.25803 2.08957,0.43081 2.32903,0.38396 0.23947,-0.0469 0.87887,0.13925 1.42089,0.41356 0.54203,0.27432 1.86468,0.69402 2.93923,0.93267 2.9984,0.66591 3.197,0.74225 3.197,1.22881 0,1.03555 -1.35516,1.73519 -2.94015,1.51795 -0.84274,-0.11551 -1.78644,-0.30756 -2.09712,-0.42678 -0.4253,-0.16321 -0.68463,0.15302 -1.04961,1.2799 -0.64945,2.00521 -1.76983,2.44603 -3.02546,1.1904 z m 42.6809,-10.46101 c 8.83826,-0.40077 11.50244,-0.74221 15.80741,-2.0259 5.3727,-1.60206 8.15464,-3.31273 9.40804,-5.78519 2.22612,-4.39124 1.70597,-10.00965 -1.04894,-11.33004 -1.27437,-0.61079 -2.44137,-0.37285 -8.42599,1.71796 -4.98663,1.74215 -8.46267,2.36213 -14.88616,2.65509 l -4.8292,0.22026 -5.42386,-1.61815 c -2.98312,-0.88998 -6.00511,-1.91547 -6.71554,-2.27887 -2.5399,-1.29922 -7.48548,-6.066328 -10.55663,-10.175663 -4.09158,-5.474724 -8.63438,-9.287875 -14.53498,-12.200407 -5.17485,-2.554307 -7.87622,-3.292608 -11.976036,-3.273128 -5.01113,0.02381 -11.35447,1.493557 -13.01293,3.015086 -2.1532,1.975425 -3.21851,5.836875 -3.2862,11.911541 -0.0441,3.957445 -0.14913,4.679741 -0.89556,6.158739 -1.7928,3.552322 -0.73926,6.129742 3.86248,9.449352 6.08784,4.39164 13.48821,7.70235 22.311336,9.98142 13.68276,3.53436 24.98612,4.44928 44.20276,3.5779 z m 1.88176,-18.9118 c 0.25093,-0.83034 1.96974,-4.546854 3.81959,-8.258932 5.23122,-10.497489 7.26805,-19.07644 5.39759,-22.734258 -0.19981,-0.390745 -1.23797,-1.714279 -2.30703,-2.941187 -1.67975,-1.927753 -2.45707,-2.475696 -5.72306,-4.034215 -2.07861,-0.99191 -4.97817,-2.249974 -6.44347,-2.795696 -1.46529,-0.545723 -3.62327,-1.422338 -4.79551,-1.948034 -3.76504,-1.688454 -10.59653,-1.7677 -14.8604,-0.172381 -2.47584,0.926332 -2.86765,1.398879 -2.56684,3.095855 0.44181,2.492466 0.50173,2.581608 1.48421,2.20807 1.22079,-0.464142 5.51046,-0.427223 7.46217,0.06422 1.08125,0.272262 2.23172,0.978668 3.53753,2.172109 l 1.93516,1.768628 0.7027,-0.893334 c 1.61586,-2.054232 3.6636,-1.823052 6.33143,0.714786 1.44056,1.370379 1.83688,2.538027 1.20091,3.538203 -0.44181,0.694834 -2.13639,1.176697 -4.1381,1.176697 h -1.88439 l -0.43402,2.20609 c -0.39537,2.009595 -0.62966,2.397179 -2.63043,4.351479 -3.39572,3.316846 -3.32835,3.150768 -1.86971,4.609412 1.71813,1.718126 1.9691,3.255618 0.88448,5.418467 -1.10623,2.205962 -2.46192,3.206496 -3.73185,2.754213 -1.42759,-0.508438 -2.27002,-1.916378 -2.50418,-4.1852 -0.11535,-1.117625 -0.34222,-2.113929 -0.50415,-2.214007 -0.16193,-0.100078 -0.69489,0.08044 -1.18437,0.40116 -1.31337,0.860554 -3.39893,0.759614 -4.17776,-0.202202 -0.34976,-0.431926 -0.63592,-0.992425 -0.63592,-1.245552 0,-0.361409 -0.26564,-0.378705 -1.23712,-0.08055 l -1.23713,0.379685 1.53032,1.807208 c 0.84168,0.993966 2.1998,2.800696 3.01806,4.014958 1.38457,2.054651 5.24637,6.065038 7.68179,7.977358 0.57913,0.45474 3.45643,1.65553 6.39401,2.66841 4.63537,1.59829 5.71684,1.8447 8.18515,1.86492 l 2.8441,0.0233 0.45624,-1.5097 z m -16.97484,-12.788022 c 0.38714,-0.634961 0.7045,-1.433751 0.70522,-1.775091 10e-4,-0.684396 -2.35225,-3.464446 -2.93315,-3.464446 -0.47295,0 -0.10198,4.157201 0.48617,5.448035 0.56132,1.231973 0.88728,1.192951 1.74176,-0.208498 z m -6.02289,-5.444682 c 0.67292,-0.503574 1.80314,-1.216054 2.5116,-1.583289 0.70847,-0.367234 2.52452,-1.853053 4.03568,-3.301821 2.22585,-2.133951 2.79217,-2.895656 2.98247,-4.01147 0.32833,-1.925052 0.11648,-2.873375 -0.68893,-3.083995 -0.47447,-0.124077 -0.69049,-0.488804 -0.69049,-1.165858 0,-0.710597 -0.44623,-1.400849 -1.60058,-2.475829 -1.78149,-1.659001 -2.67887,-1.933732 -6.31632,-1.933732 -3.08492,0 -5.58156,1.202317 -5.58156,2.687937 0,0.601675 -0.26832,0.983888 -0.84447,1.20294 -0.47966,0.182367 -1.01675,0.815283 -1.24328,1.465107 -0.51639,1.48132 -0.51473,5.04269 0.002,5.560011 0.29839,0.298386 0.24084,0.994577 -0.22424,2.712726 -0.34411,1.271229 -0.52975,2.561222 -0.41255,2.86665 0.38177,0.994876 1.83272,0.619755 3.34798,-0.865568 1.68221,-1.648983 2.08725,-1.736352 2.62081,-0.565314 0.30466,0.668649 0.26419,1.107427 -0.18522,2.008301 -0.72256,1.448609 -0.73125,1.398795 0.24409,1.398795 0.45047,0 1.36961,-0.412016 2.04253,-0.915591 z m 1.552,-7.423052 c -0.65433,-0.998635 -0.54661,-3.393528 0.25206,-5.603851 0.41877,-1.158959 0.62807,-1.332086 1.61043,-1.332086 2.31418,0 4.14168,2.690933 3.51721,5.178988 -0.62834,2.503538 -4.13922,3.65015 -5.3797,1.756949 z m 2.97506,-1.323417 c 0.8335,-0.833502 0.33653,-3.481183 -0.65342,-3.481183 -0.35876,0 -1.05165,1.72733 -1.05165,2.621681 0,1.295063 0.84404,1.720531 1.70507,0.859502 z m -9.67444,0.807059 c -0.52865,-0.584156 -0.61504,-1.072875 -0.44436,-2.514015 0.28519,-2.407964 0.93255,-3.640819 2.13354,-4.063182 0.7511,-0.264149 1.23749,-0.219192 1.95289,0.180508 1.66211,0.928621 1.43564,4.234044 -0.40796,5.954478 -1.20414,1.123687 -2.46176,1.295648 -3.23411,0.442211 z m 2.51956,-2.657452 c 0.57126,-1.197942 0.47071,-2.341235 -0.20591,-2.341235 -0.33102,0 -1.08727,2.153468 -1.09153,3.108199 -0.004,0.861367 0.72695,0.42937 1.29744,-0.766964 z m -6.78469,5.837198 0.27793,-1.234971 -0.98223,0.643584 c -0.54023,0.353972 -1.5289,0.832845 -2.19705,1.064163 l -1.21481,0.420578 1.69252,1.308044 1.69251,1.308044 0.2266,-1.137236 c 0.12463,-0.625479 0.35167,-1.692973 0.50453,-2.372206 z m -5.37603,-0.675064 c 0.1059,-0.171343 0.88519,-0.485945 1.73177,-0.699115 2.1197,-0.533747 2.81907,-1.433916 3.12413,-4.02108 0.14034,-1.190297 0.52436,-2.761122 0.85336,-3.490722 0.57519,-1.275531 0.56911,-1.383543 -0.1579,-2.808606 -0.41585,-0.815132 -0.91059,-1.386574 -1.09942,-1.269871 -0.9999,0.617973 -4.59922,6.847341 -6.02553,10.428416 -0.43229,1.085378 -0.41435,1.24922 0.18477,1.687308 0.77095,0.563734 1.12072,0.607471 1.38882,0.17367 z m 30.55707,-7.902326 c 0.33132,-0.304402 -0.0415,-0.697455 -1.88792,-1.99051 -0.81663,-0.571882 -0.87028,-0.553747 -1.82601,0.61726 -1.38664,1.698975 -1.08655,2.112276 1.36236,1.876292 1.10849,-0.106819 2.1667,-0.333187 2.35157,-0.503042 z m -21.62188,-4.888054 c -0.0733,-0.120418 -0.32512,-0.934235 -0.55965,-1.80848 -0.39735,-1.481219 -0.46032,-1.54316 -0.92405,-0.908969 -0.60585,0.828556 -0.63631,1.983112 -0.0843,3.194683 0.38721,0.849825 0.45409,0.870351 1.05729,0.324463 0.35417,-0.320515 0.58398,-0.681279 0.5107,-0.801697 z" id="path4496"/> </g> </g> </g> </svg>